<mxfile host="app.diagrams.net" modified="2022-05-26T14:25:49.478Z" agent="5.0 (Windows NT 10.0; Win64; x64) AppleWebKit/537.36 (KHTML, like Gecko) Chrome/101.0.4951.64 Safari/537.36 Edg/101.0.1210.53" etag="WIuzizFbbyNl_6med-uU" version="18.1.2" type="github">
  <diagram id="rEgIaCuv6pchiCheu6DQ" name="Page-1">
    <mxGraphModel dx="869" dy="520" grid="1" gridSize="10" guides="1" tooltips="1" connect="1" arrows="1" fold="1" page="1" pageScale="1" pageWidth="827" pageHeight="1169" math="0" shadow="0">
      <root>
        <mxCell id="0" />
        <mxCell id="1" parent="0" />
        <mxCell id="hN65cR8hwTo00HLsxnVH-1" value="" style="rounded=0;whiteSpace=wrap;html=1;" vertex="1" parent="1">
          <mxGeometry x="130" y="80" width="70" height="360" as="geometry" />
        </mxCell>
        <mxCell id="hN65cR8hwTo00HLsxnVH-2" value="" style="endArrow=classic;html=1;rounded=0;" edge="1" parent="1">
          <mxGeometry width="50" height="50" relative="1" as="geometry">
            <mxPoint x="230" y="330" as="sourcePoint" />
            <mxPoint x="200" y="330" as="targetPoint" />
          </mxGeometry>
        </mxCell>
        <mxCell id="hN65cR8hwTo00HLsxnVH-4" value="-200&amp;nbsp; cnn_in" style="text;html=1;strokeColor=none;fillColor=none;align=center;verticalAlign=middle;whiteSpace=wrap;rounded=0;" vertex="1" parent="1">
          <mxGeometry x="213" y="315" width="112" height="30" as="geometry" />
        </mxCell>
        <mxCell id="hN65cR8hwTo00HLsxnVH-5" value="" style="rounded=0;whiteSpace=wrap;html=1;" vertex="1" parent="1">
          <mxGeometry x="360" y="80" width="70" height="360" as="geometry" />
        </mxCell>
        <mxCell id="hN65cR8hwTo00HLsxnVH-7" value="" style="endArrow=classic;html=1;rounded=0;" edge="1" parent="1">
          <mxGeometry width="50" height="50" relative="1" as="geometry">
            <mxPoint x="460" y="330" as="sourcePoint" />
            <mxPoint x="430" y="330" as="targetPoint" />
          </mxGeometry>
        </mxCell>
        <mxCell id="hN65cR8hwTo00HLsxnVH-8" value="-880&amp;nbsp; img_out" style="text;html=1;strokeColor=none;fillColor=none;align=center;verticalAlign=middle;whiteSpace=wrap;rounded=0;" vertex="1" parent="1">
          <mxGeometry x="443" y="315" width="112" height="30" as="geometry" />
        </mxCell>
        <mxCell id="hN65cR8hwTo00HLsxnVH-9" value="" style="endArrow=classic;html=1;rounded=0;" edge="1" parent="1">
          <mxGeometry width="50" height="50" relative="1" as="geometry">
            <mxPoint x="230" y="205" as="sourcePoint" />
            <mxPoint x="200" y="205" as="targetPoint" />
          </mxGeometry>
        </mxCell>
        <mxCell id="hN65cR8hwTo00HLsxnVH-10" value="-80&amp;nbsp; push_rs2&lt;br&gt;-88 save_rs2&lt;br&gt;-96 mvm_rs2&lt;br&gt;-104 mvm_rs1&lt;br&gt;-112 config&amp;nbsp; &amp;nbsp;&amp;nbsp;&lt;br&gt;-120 cycles&amp;nbsp; &amp;nbsp;&amp;nbsp;" style="text;html=1;strokeColor=none;fillColor=none;align=left;verticalAlign=middle;whiteSpace=wrap;rounded=0;" vertex="1" parent="1">
          <mxGeometry x="237" y="160" width="100" height="100" as="geometry" />
        </mxCell>
        <mxCell id="hN65cR8hwTo00HLsxnVH-11" value="-20&amp;nbsp; i&lt;br&gt;-24 j&amp;nbsp;" style="text;html=1;strokeColor=none;fillColor=none;align=center;verticalAlign=middle;whiteSpace=wrap;rounded=0;" vertex="1" parent="1">
          <mxGeometry x="217" y="105" width="75" height="30" as="geometry" />
        </mxCell>
        <mxCell id="hN65cR8hwTo00HLsxnVH-12" value="" style="endArrow=classic;html=1;rounded=0;" edge="1" parent="1">
          <mxGeometry width="50" height="50" relative="1" as="geometry">
            <mxPoint x="230" y="120" as="sourcePoint" />
            <mxPoint x="200" y="120" as="targetPoint" />
          </mxGeometry>
        </mxCell>
        <mxCell id="hN65cR8hwTo00HLsxnVH-13" value="" style="rounded=0;whiteSpace=wrap;html=1;" vertex="1" parent="1">
          <mxGeometry x="570" y="80" width="70" height="360" as="geometry" />
        </mxCell>
        <mxCell id="hN65cR8hwTo00HLsxnVH-14" value="" style="endArrow=classic;html=1;rounded=0;" edge="1" parent="1">
          <mxGeometry width="50" height="50" relative="1" as="geometry">
            <mxPoint x="670.0000000000002" y="330" as="sourcePoint" />
            <mxPoint x="640.0000000000002" y="330" as="targetPoint" />
          </mxGeometry>
        </mxCell>
        <mxCell id="hN65cR8hwTo00HLsxnVH-15" value="&lt;div style=&quot;text-align: left;&quot;&gt;&lt;span style=&quot;background-color: initial;&quot;&gt;13000 edge_weigh&lt;/span&gt;&lt;/div&gt;&lt;div style=&quot;text-align: left;&quot;&gt;&lt;span style=&quot;background-color: initial;&quot;&gt;13010 img&lt;/span&gt;&lt;/div&gt;&lt;div style=&quot;text-align: left;&quot;&gt;&lt;span style=&quot;background-color: initial;&quot;&gt;&lt;br&gt;&lt;/span&gt;&lt;/div&gt;" style="text;html=1;strokeColor=none;fillColor=none;align=center;verticalAlign=middle;whiteSpace=wrap;rounded=0;" vertex="1" parent="1">
          <mxGeometry x="669" y="315" width="112" height="30" as="geometry" />
        </mxCell>
      </root>
    </mxGraphModel>
  </diagram>
</mxfile>
